<svg width="14" height="16" viewBox="0 0 14 16" fill="none" xmlns="http://www.w3.org/2000/svg">
<path d="M13.5594 2.05938L11.9375 0.4375C11.6562 0.157185 11.2752 -0.000147557 10.8781 1.03844e-07H5.5C4.67188 1.03844e-07 4 0.671875 4 1.5V3H1.5C0.671875 3 0 3.67188 0 4.5V14.5C0 15.3281 0.671875 16 1.5 16H8.5C9.32812 16 10 15.3281 10 14.5V13H12.5C13.3281 13 14 12.3281 14 11.5V3.12188C13.9993 2.72431 13.8408 2.34328 13.5594 2.0625V2.05938ZM8.3125 14.5H1.6875C1.63777 14.5 1.59008 14.4802 1.55492 14.4451C1.51975 14.4099 1.5 14.3622 1.5 14.3125V4.6875C1.5 4.63777 1.51975 4.59008 1.55492 4.55492C1.59008 4.51975 1.63777 4.5 1.6875 4.5H4V11.5C4 12.3281 4.67188 13 5.5 13H8.5V14.3125C8.5 14.3622 8.48025 14.4099 8.44508 14.4451C8.40992 14.4802 8.36223 14.5 8.3125 14.5ZM12.3125 11.5H5.6875C5.63777 11.5 5.59008 11.4802 5.55492 11.4451C5.51975 11.4099 5.5 11.3622 5.5 11.3125V1.6875C5.5 1.63777 5.51975 1.59008 5.55492 1.55492C5.59008 1.51975 5.63777 1.5 5.6875 1.5H9V4.25C9 4.66563 9.33437 5 9.75 5H12.5V11.3125C12.5 11.3622 12.4802 11.4099 12.4451 11.4451C12.4099 11.4802 12.3622 11.5 12.3125 11.5ZM12.5 3.5H10.5V1.5H10.8C10.85 1.5 10.8969 1.51875 10.9312 1.55625L12.4438 3.06875C12.4791 3.10337 12.4993 3.15054 12.5 3.2V3.5Z" fill="white"/>
</svg>
