<svg width="14" height="14" viewBox="0 0 14 14" fill="none" xmlns="http://www.w3.org/2000/svg">
<g clip-path="url(#clip0_45_59)">
<path d="M12.0504 0.344532L12.1598 2.60859C11.5244 1.85864 10.733 1.2563 9.84093 0.843547C8.94885 0.430797 7.97747 0.217577 6.99453 0.21875C3.6832 0.21875 0.926953 2.59492 0.336328 5.73672C0.327493 5.7841 0.329202 5.83284 0.341335 5.87948C0.353468 5.92612 0.375726 5.96952 0.406528 6.00659C0.43733 6.04365 0.475919 6.07348 0.519552 6.09394C0.563185 6.11441 0.61079 6.12501 0.658984 6.125H2.00156C2.07579 6.12505 2.14784 6.09993 2.20595 6.05374C2.26405 6.00755 2.30478 5.94303 2.32148 5.8707C2.54026 4.96293 3.01854 4.13847 3.69796 3.49793C4.37737 2.85739 5.22855 2.42846 6.14763 2.26349C7.0667 2.09852 8.01392 2.20464 8.87369 2.56891C9.73347 2.93317 10.4686 3.53983 10.9895 4.31484L8.21406 4.18086C8.16961 4.17863 8.12517 4.18548 8.08345 4.20097C8.04173 4.21646 8.00359 4.24027 7.97136 4.27097C7.93913 4.30166 7.91349 4.33859 7.89598 4.37951C7.87847 4.42043 7.86948 4.46448 7.86953 4.50898V5.80508C7.86953 5.8921 7.9041 5.97556 7.96564 6.0371C8.02717 6.09863 8.11063 6.1332 8.19766 6.1332H13.6719C13.7589 6.1332 13.8424 6.09863 13.9039 6.0371C13.9654 5.97556 14 5.8921 14 5.80508V0.328125C14 0.241101 13.9654 0.157641 13.9039 0.0961058C13.8424 0.0345705 13.7589 2.56711e-07 13.6719 2.56711e-07H12.3758C12.3313 -5.54124e-05 12.2872 0.00894357 12.2463 0.0264498C12.2054 0.043956 12.1685 0.0696034 12.1378 0.101832C12.1071 0.13406 12.0833 0.172196 12.0678 0.213919C12.0523 0.255643 12.0454 0.300081 12.0477 0.344532H12.0504ZM6.99453 11.8125C6.20554 11.8132 5.42852 11.6195 4.73222 11.2484C4.03591 10.8774 3.44177 10.3405 3.00234 9.68516L5.78594 9.81914C5.83039 9.82137 5.87483 9.81452 5.91655 9.79903C5.95827 9.78354 5.99641 9.75973 6.02864 9.72903C6.06087 9.69834 6.08651 9.66141 6.10402 9.62049C6.12153 9.57957 6.13052 9.53552 6.13047 9.49102V8.19492C6.13047 8.1079 6.0959 8.02444 6.03436 7.9629C5.97283 7.90137 5.88937 7.8668 5.80234 7.8668H0.328125C0.241101 7.8668 0.157641 7.90137 0.0961056 7.9629C0.0345702 8.02444 0 8.1079 0 8.19492L0 13.6719C0 13.7589 0.0345702 13.8424 0.0961056 13.9039C0.157641 13.9654 0.241101 14 0.328125 14H1.62422C1.66872 14.0001 1.71278 13.9911 1.7537 13.9736C1.79461 13.956 1.83154 13.9304 1.86224 13.8982C1.89293 13.8659 1.91675 13.8278 1.93224 13.7861C1.94773 13.7444 1.95457 13.6999 1.95234 13.6555L1.8375 11.3969C2.47254 12.1448 3.26278 12.7455 4.15333 13.1572C5.04388 13.569 6.0134 13.7819 6.99453 13.7812C10.3059 13.7812 13.0621 11.4051 13.6555 8.26328C13.6643 8.2159 13.6626 8.16716 13.6505 8.12052C13.6383 8.07388 13.6161 8.03048 13.5853 7.99341C13.5545 7.95635 13.5159 7.92652 13.4722 7.90606C13.4286 7.88559 13.381 7.87499 13.3328 7.875H11.9902C11.916 7.87495 11.844 7.90007 11.7859 7.94626C11.7277 7.99245 11.687 8.05697 11.6703 8.1293C11.4174 9.17893 10.8187 10.113 9.9706 10.7811C9.12246 11.4492 8.0742 11.8125 6.99453 11.8125Z" fill="white"/>
</g>
<defs>
<clipPath id="clip0_45_59">
<rect width="14" height="14" fill="white"/>
</clipPath>
</defs>
</svg>
